<?xml version="1.0" encoding="UTF-8"?>
<!DOCTYPE svg PUBLIC "-//W3C//DTD SVG 1.1//EN" "http://www.w3.org/Graphics/SVG/1.1/DTD/svg11.dtd">
<svg xmlns="http://www.w3.org/2000/svg" viewBox="0 0 24 24" class="css-1yrim93"><path d="M12 2.5c5.25 0 9.5 4.25 9.5 9.5s-4.25 9.5-9.5 9.5-9.5-4.25-9.5-9.5S6.75 2.5 12 2.5ZM12 1C5.9 1 1 5.9 1 12s4.9 11 11 11 11-4.9 11-11S18.1 1 12 1Z" class="css-1e98oqk"></path><path d="M16.15 11.8c.15.1.15.3 0 .4l-2.9 1.9-2.8 1.85c-.15.1-.4 0-.4-.2v-7.5c0-.2.25-.3.4-.2l2.8 1.85 2.9 1.9Z" class="css-1e98oqk"></path></svg>